<svg width="20" height="20" xmlns="http://www.w3.org/2000/svg">
    <g transform="translate(-.001)" fill="none" fill-rule="evenodd">
        <path d="M17.953 4.979c.012.216.012.434.012.652C17.965 12.305 13.837 20 6.29 20v-.004C4.06 20 1.877 19.214 0 17.731c.324.048.65.073.977.073 1.848.003 3.643-.76 5.096-2.166-1.756-.04-3.296-1.45-3.834-3.507a3.354 3.354 0 0 0 1.853-.086C2.177 11.569.801 9.498.8 7.095V7.03a3.51 3.51 0 0 0 1.862.633C.86 6.18.302 3.229 1.392.92 3.476 4.076 6.55 5.994 9.849 6.198c-.331-1.754.121-3.592 1.187-4.825 1.652-1.913 4.252-1.815 5.806.219A7.367 7.367 0 0 0 19.447.366c-.306 1.17-.947 2.162-1.804 2.793A7.031 7.031 0 0 0 20 2.365a9.666 9.666 0 0 1-2.047 2.614" fill="#FFF"/>
        <rect width="20" height="20" rx="2"/>
    </g>
</svg>
