<svg width="20" height="20" xmlns="http://www.w3.org/2000/svg" xmlns:xlink="http://www.w3.org/1999/xlink">
    <defs>
        <path id="a" d="M0 0h19.993v14.086H0z"/>
    </defs>
    <g transform="translate(-.001)" fill="none" fill-rule="evenodd">
        <g transform="translate(0 3)">
            <mask id="b" fill="#fff">
                <use xlink:href="#a"/>
            </mask>
            <path d="M10.085-.004h.069l.31.001c.678.005 2 .02 3.358.068l.51.02c1.443.06 2.844.16 3.475.331.86.232 1.538.914 1.768 1.78.362 1.36.41 4.002.417 4.682l.001.12v.205c-.007.681-.056 3.322-.418 4.683a2.513 2.513 0 0 1-1.768 1.78c-1.411.38-6.665.417-7.653.42h-.322c-.988-.003-6.242-.04-7.653-.42a2.513 2.513 0 0 1-1.768-1.78C.035 10.473-.003 7.68-.006 7.134v-.186c.003-.545.041-3.34.417-4.752A2.513 2.513 0 0 1 2.18.416C2.811.246 4.211.145 5.654.084l.51-.02c1.36-.048 2.68-.062 3.359-.067l.31-.001H9.9zM7.948 4.067v5.948l5.227-2.974-5.227-2.974z" fill="#FFF" mask="url(#b)"/>
        </g>
        <rect width="20" height="20" rx="2"/>
    </g>
</svg>
